<?xml version="1.0" encoding="UTF-8"?>
<svg id="Layer_1" xmlns="http://www.w3.org/2000/svg" version="1.1" viewBox="0 0 70.87 70.87">
  <!-- Generator: Adobe Illustrator 30.4.0, SVG Export Plug-In . SVG Version: 2.1.4 Build 226)  -->
  <defs>
    <style>
      .st0 {
        fill: #fff;
      }
    </style>
  </defs>
  <rect width="70.87" height="70.87" rx="7.09" ry="7.09"/>
  <g>
    <path class="st0" d="M39.24,53.12h8.28l-12.74-36.38h-9.77l-12.43,36.38h8.23l2.7-8.45h12.92l2.81,8.45ZM25.38,38.84l1.05-3.27c.67-2.21,1.34-4.68,2.01-7.39.44-1.76.9-3.62,1.38-5.59.5,1.95.98,3.8,1.45,5.54.72,2.69,1.44,5.17,2.14,7.43l1.09,3.27h-9.12Z"/>
    <path class="st0" d="M54.06,53.12c-1.19,0-2.19-.4-3-1.21s-1.22-1.8-1.22-2.99.41-2.19,1.22-2.99,1.81-1.21,3-1.21,2.19.4,3,1.21,1.22,1.8,1.22,2.99-.41,2.19-1.22,2.99-1.81,1.21-3,1.21Z"/>
  </g>
</svg>